<mxfile host="6e2b636c-40df-4641-96c9-ccce95339768" modified="2020-09-15T08:33:04.694Z" agent="5.0 (Windows NT 10.0; Win64; x64) AppleWebKit/537.36 (KHTML, like Gecko) Code/1.49.0 Chrome/83.0.4103.122 Electron/9.2.1 Safari/537.36" etag="Q_FkaiyEUkFBWI9kcKb7" version="13.1.3">
    <diagram id="bWivs9EXehdVZtufbnhM" name="Page-1">
        <mxGraphModel dx="1120" dy="568" grid="1" gridSize="10" guides="1" tooltips="1" connect="1" arrows="1" fold="1" page="1" pageScale="1" pageWidth="827" pageHeight="1169" math="0" shadow="0">
            <root>
                <mxCell id="0"/>
                <mxCell id="1" parent="0"/>
                <mxCell id="kRZJ_V1CFgiE1QoKiVoO-9" style="edgeStyle=orthogonalEdgeStyle;rounded=0;orthogonalLoop=1;jettySize=auto;html=1;exitX=0.5;exitY=1;exitDx=0;exitDy=0;" parent="1" source="kRZJ_V1CFgiE1QoKiVoO-1" target="kRZJ_V1CFgiE1QoKiVoO-2" edge="1">
                    <mxGeometry relative="1" as="geometry"/>
                </mxCell>
                <mxCell id="kRZJ_V1CFgiE1QoKiVoO-1" value="start" style="rounded=1;whiteSpace=wrap;html=1;" parent="1" vertex="1">
                    <mxGeometry x="354" width="120" height="60" as="geometry"/>
                </mxCell>
                <mxCell id="kRZJ_V1CFgiE1QoKiVoO-10" style="edgeStyle=orthogonalEdgeStyle;rounded=0;orthogonalLoop=1;jettySize=auto;html=1;exitX=0.5;exitY=1;exitDx=0;exitDy=0;" parent="1" source="kRZJ_V1CFgiE1QoKiVoO-2" target="kRZJ_V1CFgiE1QoKiVoO-3" edge="1">
                    <mxGeometry relative="1" as="geometry"/>
                </mxCell>
                <mxCell id="kRZJ_V1CFgiE1QoKiVoO-2" value="input tall" style="shape=parallelogram;perimeter=parallelogramPerimeter;whiteSpace=wrap;html=1;fixedSize=1;" parent="1" vertex="1">
                    <mxGeometry x="354" y="100" width="120" height="60" as="geometry"/>
                </mxCell>
                <mxCell id="kRZJ_V1CFgiE1QoKiVoO-11" style="edgeStyle=orthogonalEdgeStyle;rounded=0;orthogonalLoop=1;jettySize=auto;html=1;exitX=0.5;exitY=1;exitDx=0;exitDy=0;" parent="1" source="kRZJ_V1CFgiE1QoKiVoO-3" target="kRZJ_V1CFgiE1QoKiVoO-4" edge="1">
                    <mxGeometry relative="1" as="geometry"/>
                </mxCell>
                <mxCell id="kRZJ_V1CFgiE1QoKiVoO-3" value="input tall" style="shape=parallelogram;perimeter=parallelogramPerimeter;whiteSpace=wrap;html=1;fixedSize=1;" parent="1" vertex="1">
                    <mxGeometry x="354" y="180" width="120" height="60" as="geometry"/>
                </mxCell>
                <mxCell id="kRZJ_V1CFgiE1QoKiVoO-12" style="edgeStyle=orthogonalEdgeStyle;rounded=0;orthogonalLoop=1;jettySize=auto;html=1;exitX=0.5;exitY=1;exitDx=0;exitDy=0;" parent="1" source="kRZJ_V1CFgiE1QoKiVoO-4" target="kRZJ_V1CFgiE1QoKiVoO-5" edge="1">
                    <mxGeometry relative="1" as="geometry"/>
                </mxCell>
                <mxCell id="kRZJ_V1CFgiE1QoKiVoO-4" value="input tall" style="shape=parallelogram;perimeter=parallelogramPerimeter;whiteSpace=wrap;html=1;fixedSize=1;" parent="1" vertex="1">
                    <mxGeometry x="354" y="260" width="120" height="60" as="geometry"/>
                </mxCell>
                <mxCell id="kRZJ_V1CFgiE1QoKiVoO-13" style="edgeStyle=orthogonalEdgeStyle;rounded=0;orthogonalLoop=1;jettySize=auto;html=1;exitX=0.5;exitY=1;exitDx=0;exitDy=0;" parent="1" source="kRZJ_V1CFgiE1QoKiVoO-5" target="kRZJ_V1CFgiE1QoKiVoO-8" edge="1">
                    <mxGeometry relative="1" as="geometry"/>
                </mxCell>
                <mxCell id="kRZJ_V1CFgiE1QoKiVoO-5" value="input tall" style="shape=parallelogram;perimeter=parallelogramPerimeter;whiteSpace=wrap;html=1;fixedSize=1;" parent="1" vertex="1">
                    <mxGeometry x="354" y="340" width="120" height="60" as="geometry"/>
                </mxCell>
                <mxCell id="kRZJ_V1CFgiE1QoKiVoO-15" style="edgeStyle=orthogonalEdgeStyle;rounded=0;orthogonalLoop=1;jettySize=auto;html=1;exitX=0.5;exitY=1;exitDx=0;exitDy=0;" parent="1" source="kRZJ_V1CFgiE1QoKiVoO-8" target="kRZJ_V1CFgiE1QoKiVoO-14" edge="1">
                    <mxGeometry relative="1" as="geometry"/>
                </mxCell>
                <mxCell id="kRZJ_V1CFgiE1QoKiVoO-8" value="input tall" style="shape=parallelogram;perimeter=parallelogramPerimeter;whiteSpace=wrap;html=1;fixedSize=1;" parent="1" vertex="1">
                    <mxGeometry x="354" y="420" width="120" height="60" as="geometry"/>
                </mxCell>
                <mxCell id="kRZJ_V1CFgiE1QoKiVoO-17" style="edgeStyle=orthogonalEdgeStyle;rounded=0;orthogonalLoop=1;jettySize=auto;html=1;exitX=0.5;exitY=1;exitDx=0;exitDy=0;" parent="1" source="kRZJ_V1CFgiE1QoKiVoO-14" target="kRZJ_V1CFgiE1QoKiVoO-16" edge="1">
                    <mxGeometry relative="1" as="geometry"/>
                </mxCell>
                <mxCell id="kRZJ_V1CFgiE1QoKiVoO-14" value="tilordne minste_tall som stort tall for sammenlignings grunnlag" style="rounded=0;whiteSpace=wrap;html=1;" parent="1" vertex="1">
                    <mxGeometry x="354" y="525" width="120" height="60" as="geometry"/>
                </mxCell>
                <mxCell id="kRZJ_V1CFgiE1QoKiVoO-20" style="edgeStyle=orthogonalEdgeStyle;rounded=0;orthogonalLoop=1;jettySize=auto;html=1;exitX=0;exitY=0.5;exitDx=0;exitDy=0;entryX=0.5;entryY=0;entryDx=0;entryDy=0;" parent="1" source="kRZJ_V1CFgiE1QoKiVoO-16" target="kRZJ_V1CFgiE1QoKiVoO-19" edge="1">
                    <mxGeometry relative="1" as="geometry"/>
                </mxCell>
                <mxCell id="kRZJ_V1CFgiE1QoKiVoO-27" style="edgeStyle=orthogonalEdgeStyle;rounded=0;orthogonalLoop=1;jettySize=auto;html=1;exitX=0.5;exitY=1;exitDx=0;exitDy=0;" parent="1" source="kRZJ_V1CFgiE1QoKiVoO-16" target="kRZJ_V1CFgiE1QoKiVoO-24" edge="1">
                    <mxGeometry relative="1" as="geometry"/>
                </mxCell>
                <mxCell id="kRZJ_V1CFgiE1QoKiVoO-16" value="hvis tall1&amp;lt;tall2" style="rhombus;whiteSpace=wrap;html=1;" parent="1" vertex="1">
                    <mxGeometry x="354" y="640" width="126" height="130" as="geometry"/>
                </mxCell>
                <mxCell id="kRZJ_V1CFgiE1QoKiVoO-22" style="edgeStyle=orthogonalEdgeStyle;rounded=0;orthogonalLoop=1;jettySize=auto;html=1;exitX=0.5;exitY=1;exitDx=0;exitDy=0;" parent="1" source="kRZJ_V1CFgiE1QoKiVoO-19" target="kRZJ_V1CFgiE1QoKiVoO-21" edge="1">
                    <mxGeometry relative="1" as="geometry"/>
                </mxCell>
                <mxCell id="kRZJ_V1CFgiE1QoKiVoO-19" value="tilordne minste_tall=tall1" style="rounded=0;whiteSpace=wrap;html=1;" parent="1" vertex="1">
                    <mxGeometry x="200" y="730" width="120" height="60" as="geometry"/>
                </mxCell>
                <mxCell id="3" style="edgeStyle=orthogonalEdgeStyle;rounded=0;orthogonalLoop=1;jettySize=auto;html=1;exitX=1;exitY=0.5;exitDx=0;exitDy=0;" edge="1" parent="1" source="kRZJ_V1CFgiE1QoKiVoO-21">
                    <mxGeometry relative="1" as="geometry">
                        <mxPoint x="420" y="810" as="targetPoint"/>
                    </mxGeometry>
                </mxCell>
                <mxCell id="kRZJ_V1CFgiE1QoKiVoO-21" value="tilordne tall_sekvens=1" style="rounded=0;whiteSpace=wrap;html=1;" parent="1" vertex="1">
                    <mxGeometry x="200" y="810" width="120" height="60" as="geometry"/>
                </mxCell>
                <mxCell id="kRZJ_V1CFgiE1QoKiVoO-28" style="edgeStyle=orthogonalEdgeStyle;rounded=0;orthogonalLoop=1;jettySize=auto;html=1;exitX=0;exitY=0.5;exitDx=0;exitDy=0;entryX=0.5;entryY=0;entryDx=0;entryDy=0;" parent="1" source="kRZJ_V1CFgiE1QoKiVoO-24" target="kRZJ_V1CFgiE1QoKiVoO-25" edge="1">
                    <mxGeometry relative="1" as="geometry"/>
                </mxCell>
                <mxCell id="kRZJ_V1CFgiE1QoKiVoO-34" style="edgeStyle=orthogonalEdgeStyle;rounded=0;orthogonalLoop=1;jettySize=auto;html=1;exitX=0.5;exitY=1;exitDx=0;exitDy=0;" parent="1" source="kRZJ_V1CFgiE1QoKiVoO-24" target="kRZJ_V1CFgiE1QoKiVoO-31" edge="1">
                    <mxGeometry relative="1" as="geometry"/>
                </mxCell>
                <mxCell id="kRZJ_V1CFgiE1QoKiVoO-24" value="hvis tall2&amp;lt;minste_tall" style="rhombus;whiteSpace=wrap;html=1;" parent="1" vertex="1">
                    <mxGeometry x="354" y="820" width="126" height="130" as="geometry"/>
                </mxCell>
                <mxCell id="kRZJ_V1CFgiE1QoKiVoO-29" style="edgeStyle=orthogonalEdgeStyle;rounded=0;orthogonalLoop=1;jettySize=auto;html=1;exitX=0.5;exitY=1;exitDx=0;exitDy=0;" parent="1" source="kRZJ_V1CFgiE1QoKiVoO-25" target="kRZJ_V1CFgiE1QoKiVoO-26" edge="1">
                    <mxGeometry relative="1" as="geometry"/>
                </mxCell>
                <mxCell id="kRZJ_V1CFgiE1QoKiVoO-25" value="tilordne minste_tall=tall2" style="rounded=0;whiteSpace=wrap;html=1;" parent="1" vertex="1">
                    <mxGeometry x="200" y="910" width="120" height="60" as="geometry"/>
                </mxCell>
                <mxCell id="4" style="edgeStyle=orthogonalEdgeStyle;rounded=0;orthogonalLoop=1;jettySize=auto;html=1;exitX=1;exitY=0.5;exitDx=0;exitDy=0;entryX=0.5;entryY=0;entryDx=0;entryDy=0;" edge="1" parent="1" source="kRZJ_V1CFgiE1QoKiVoO-26" target="kRZJ_V1CFgiE1QoKiVoO-31">
                    <mxGeometry relative="1" as="geometry"/>
                </mxCell>
                <mxCell id="kRZJ_V1CFgiE1QoKiVoO-26" value="tilordne tall_sekvens=2" style="rounded=0;whiteSpace=wrap;html=1;" parent="1" vertex="1">
                    <mxGeometry x="200" y="990" width="120" height="60" as="geometry"/>
                </mxCell>
                <mxCell id="kRZJ_V1CFgiE1QoKiVoO-35" style="edgeStyle=orthogonalEdgeStyle;rounded=0;orthogonalLoop=1;jettySize=auto;html=1;exitX=0;exitY=0.5;exitDx=0;exitDy=0;entryX=0.5;entryY=0;entryDx=0;entryDy=0;" parent="1" source="kRZJ_V1CFgiE1QoKiVoO-31" target="kRZJ_V1CFgiE1QoKiVoO-32" edge="1">
                    <mxGeometry relative="1" as="geometry"/>
                </mxCell>
                <mxCell id="kRZJ_V1CFgiE1QoKiVoO-47" style="edgeStyle=orthogonalEdgeStyle;rounded=0;orthogonalLoop=1;jettySize=auto;html=1;exitX=0.5;exitY=1;exitDx=0;exitDy=0;" parent="1" source="kRZJ_V1CFgiE1QoKiVoO-31" target="kRZJ_V1CFgiE1QoKiVoO-37" edge="1">
                    <mxGeometry relative="1" as="geometry"/>
                </mxCell>
                <mxCell id="kRZJ_V1CFgiE1QoKiVoO-31" value="hvis tall3&amp;lt;minste_tall" style="rhombus;whiteSpace=wrap;html=1;" parent="1" vertex="1">
                    <mxGeometry x="354" y="1030" width="126" height="130" as="geometry"/>
                </mxCell>
                <mxCell id="kRZJ_V1CFgiE1QoKiVoO-36" style="edgeStyle=orthogonalEdgeStyle;rounded=0;orthogonalLoop=1;jettySize=auto;html=1;exitX=0.5;exitY=1;exitDx=0;exitDy=0;" parent="1" source="kRZJ_V1CFgiE1QoKiVoO-32" target="kRZJ_V1CFgiE1QoKiVoO-33" edge="1">
                    <mxGeometry relative="1" as="geometry"/>
                </mxCell>
                <mxCell id="kRZJ_V1CFgiE1QoKiVoO-32" value="tilordne minste_tall=tall3" style="rounded=0;whiteSpace=wrap;html=1;" parent="1" vertex="1">
                    <mxGeometry x="200" y="1120" width="120" height="60" as="geometry"/>
                </mxCell>
                <mxCell id="5" style="edgeStyle=orthogonalEdgeStyle;rounded=0;orthogonalLoop=1;jettySize=auto;html=1;exitX=1;exitY=0.5;exitDx=0;exitDy=0;entryX=0.5;entryY=0;entryDx=0;entryDy=0;" edge="1" parent="1" source="kRZJ_V1CFgiE1QoKiVoO-33" target="kRZJ_V1CFgiE1QoKiVoO-37">
                    <mxGeometry relative="1" as="geometry"/>
                </mxCell>
                <mxCell id="kRZJ_V1CFgiE1QoKiVoO-33" value="tilordne tall_sekvens=3" style="rounded=0;whiteSpace=wrap;html=1;" parent="1" vertex="1">
                    <mxGeometry x="200" y="1200" width="120" height="60" as="geometry"/>
                </mxCell>
                <mxCell id="kRZJ_V1CFgiE1QoKiVoO-43" style="edgeStyle=orthogonalEdgeStyle;rounded=0;orthogonalLoop=1;jettySize=auto;html=1;exitX=0;exitY=0.5;exitDx=0;exitDy=0;entryX=0.5;entryY=0;entryDx=0;entryDy=0;" parent="1" source="kRZJ_V1CFgiE1QoKiVoO-37" target="kRZJ_V1CFgiE1QoKiVoO-38" edge="1">
                    <mxGeometry relative="1" as="geometry"/>
                </mxCell>
                <mxCell id="kRZJ_V1CFgiE1QoKiVoO-48" style="edgeStyle=orthogonalEdgeStyle;rounded=0;orthogonalLoop=1;jettySize=auto;html=1;exitX=0.5;exitY=1;exitDx=0;exitDy=0;" parent="1" source="kRZJ_V1CFgiE1QoKiVoO-37" target="kRZJ_V1CFgiE1QoKiVoO-40" edge="1">
                    <mxGeometry relative="1" as="geometry"/>
                </mxCell>
                <mxCell id="kRZJ_V1CFgiE1QoKiVoO-37" value="hvis tall4&amp;lt;minste_tall" style="rhombus;whiteSpace=wrap;html=1;" parent="1" vertex="1">
                    <mxGeometry x="354" y="1210" width="126" height="130" as="geometry"/>
                </mxCell>
                <mxCell id="kRZJ_V1CFgiE1QoKiVoO-44" style="edgeStyle=orthogonalEdgeStyle;rounded=0;orthogonalLoop=1;jettySize=auto;html=1;exitX=0.5;exitY=1;exitDx=0;exitDy=0;entryX=0.5;entryY=0;entryDx=0;entryDy=0;" parent="1" source="kRZJ_V1CFgiE1QoKiVoO-38" target="kRZJ_V1CFgiE1QoKiVoO-39" edge="1">
                    <mxGeometry relative="1" as="geometry"/>
                </mxCell>
                <mxCell id="kRZJ_V1CFgiE1QoKiVoO-38" value="tilordne minste_tall=tall4" style="rounded=0;whiteSpace=wrap;html=1;" parent="1" vertex="1">
                    <mxGeometry x="200" y="1300" width="120" height="60" as="geometry"/>
                </mxCell>
                <mxCell id="6" style="edgeStyle=orthogonalEdgeStyle;rounded=0;orthogonalLoop=1;jettySize=auto;html=1;exitX=1;exitY=0.5;exitDx=0;exitDy=0;entryX=0.5;entryY=0;entryDx=0;entryDy=0;" edge="1" parent="1" source="kRZJ_V1CFgiE1QoKiVoO-39" target="kRZJ_V1CFgiE1QoKiVoO-40">
                    <mxGeometry relative="1" as="geometry"/>
                </mxCell>
                <mxCell id="kRZJ_V1CFgiE1QoKiVoO-39" value="tilordne tall_sekvens=4" style="rounded=0;whiteSpace=wrap;html=1;" parent="1" vertex="1">
                    <mxGeometry x="200" y="1380" width="120" height="60" as="geometry"/>
                </mxCell>
                <mxCell id="kRZJ_V1CFgiE1QoKiVoO-45" style="edgeStyle=orthogonalEdgeStyle;rounded=0;orthogonalLoop=1;jettySize=auto;html=1;exitX=0;exitY=0.5;exitDx=0;exitDy=0;entryX=0.5;entryY=0;entryDx=0;entryDy=0;" parent="1" source="kRZJ_V1CFgiE1QoKiVoO-40" target="kRZJ_V1CFgiE1QoKiVoO-41" edge="1">
                    <mxGeometry relative="1" as="geometry"/>
                </mxCell>
                <mxCell id="kRZJ_V1CFgiE1QoKiVoO-50" style="edgeStyle=orthogonalEdgeStyle;rounded=0;orthogonalLoop=1;jettySize=auto;html=1;exitX=0.5;exitY=1;exitDx=0;exitDy=0;" parent="1" source="kRZJ_V1CFgiE1QoKiVoO-40" target="kRZJ_V1CFgiE1QoKiVoO-49" edge="1">
                    <mxGeometry relative="1" as="geometry"/>
                </mxCell>
                <mxCell id="kRZJ_V1CFgiE1QoKiVoO-40" value="hvis tall5&amp;lt;minste_tall" style="rhombus;whiteSpace=wrap;html=1;" parent="1" vertex="1">
                    <mxGeometry x="354" y="1390" width="126" height="130" as="geometry"/>
                </mxCell>
                <mxCell id="kRZJ_V1CFgiE1QoKiVoO-46" style="edgeStyle=orthogonalEdgeStyle;rounded=0;orthogonalLoop=1;jettySize=auto;html=1;exitX=0.5;exitY=1;exitDx=0;exitDy=0;" parent="1" source="kRZJ_V1CFgiE1QoKiVoO-41" target="kRZJ_V1CFgiE1QoKiVoO-42" edge="1">
                    <mxGeometry relative="1" as="geometry"/>
                </mxCell>
                <mxCell id="kRZJ_V1CFgiE1QoKiVoO-41" value="tilordne minste_tall=tall5" style="rounded=0;whiteSpace=wrap;html=1;" parent="1" vertex="1">
                    <mxGeometry x="200" y="1480" width="120" height="60" as="geometry"/>
                </mxCell>
                <mxCell id="7" style="edgeStyle=orthogonalEdgeStyle;rounded=0;orthogonalLoop=1;jettySize=auto;html=1;exitX=1;exitY=0.5;exitDx=0;exitDy=0;" edge="1" parent="1" source="kRZJ_V1CFgiE1QoKiVoO-42" target="kRZJ_V1CFgiE1QoKiVoO-49">
                    <mxGeometry relative="1" as="geometry"/>
                </mxCell>
                <mxCell id="kRZJ_V1CFgiE1QoKiVoO-42" value="tilordne tall_sekvens=5" style="rounded=0;whiteSpace=wrap;html=1;" parent="1" vertex="1">
                    <mxGeometry x="200" y="1560" width="120" height="60" as="geometry"/>
                </mxCell>
                <mxCell id="kRZJ_V1CFgiE1QoKiVoO-52" style="edgeStyle=orthogonalEdgeStyle;rounded=0;orthogonalLoop=1;jettySize=auto;html=1;exitX=0.5;exitY=1;exitDx=0;exitDy=0;" parent="1" source="kRZJ_V1CFgiE1QoKiVoO-49" target="kRZJ_V1CFgiE1QoKiVoO-51" edge="1">
                    <mxGeometry relative="1" as="geometry"/>
                </mxCell>
                <mxCell id="kRZJ_V1CFgiE1QoKiVoO-49" value="print minste tall og tall i sekvens" style="shape=parallelogram;perimeter=parallelogramPerimeter;whiteSpace=wrap;html=1;fixedSize=1;" parent="1" vertex="1">
                    <mxGeometry x="314" y="1640" width="206" height="60" as="geometry"/>
                </mxCell>
                <mxCell id="kRZJ_V1CFgiE1QoKiVoO-51" value="fin" style="rounded=1;whiteSpace=wrap;html=1;" parent="1" vertex="1">
                    <mxGeometry x="357" y="1754" width="120" height="60" as="geometry"/>
                </mxCell>
                <mxCell id="kRZJ_V1CFgiE1QoKiVoO-53" value="&lt;h1&gt;Oppgave 4&lt;/h1&gt;&lt;p&gt;Som hovedregel ved logiske veiskiller vil:&lt;/p&gt;&lt;p&gt;&lt;br&gt;IF=true peke mot venstre&amp;nbsp;&lt;/p&gt;&lt;p&gt;IF=false peke mot høyre&amp;nbsp;&lt;/p&gt;&lt;p&gt;Dette er konsekvens av ønske om at else if skal vokse mot høyre&lt;/p&gt;" style="text;html=1;strokeColor=none;fillColor=none;spacing=5;spacingTop=-20;whiteSpace=wrap;overflow=hidden;rounded=0;" parent="1" vertex="1">
                    <mxGeometry x="10" y="10" width="190" height="300" as="geometry"/>
                </mxCell>
                <mxCell id="2" style="edgeStyle=orthogonalEdgeStyle;rounded=0;orthogonalLoop=1;jettySize=auto;html=1;exitX=0.5;exitY=1;exitDx=0;exitDy=0;" edge="1" parent="1" source="kRZJ_V1CFgiE1QoKiVoO-21" target="kRZJ_V1CFgiE1QoKiVoO-21">
                    <mxGeometry relative="1" as="geometry"/>
                </mxCell>
            </root>
        </mxGraphModel>
    </diagram>
</mxfile>